<?xml version="1.0" encoding="UTF-8"?>
<svg xmlns="http://www.w3.org/2000/svg" viewBox="0 0 64 64">
  <defs>
    <style>
      .cls-1 {
        fill: #F9FAFB;
      }
      .cls-2 {
        fill: #0a0e1a;
      }
    </style>
  </defs>
  <ellipse class="cls-1" cx="32" cy="32" rx="32" ry="32"/>
  <path class="cls-2"
    d="M26.9,14.47
       c-6.74.79-8.5,8.65-10.66,14.6
       -1.2,3.3-3.99-7.42-3.99-10.83
       s3.77-6.18,8.41-6.18
       10.83,1.87,6.24,2.41Z"
    transform="translate(6.5, 5) scale(0.85)"/>
  <path class="cls-2"
    d="M26.9,14.47
       c-6.74.79-8.5,8.65-10.66,14.6
       -1.2,3.3-3.99-7.42-3.99-10.83
       s3.77-6.18,8.41-6.18
       10.83,1.87,6.24,2.41Z"
    transform="translate(57.5, 5) scale(-0.85, 0.85)"/>
  <path class="cls-2"
    d="M26.9,14.47
       c-6.74.79-8.5,8.65-10.66,14.6
       -1.2,3.3-3.99-7.42-3.99-10.83
       s3.77-6.18,8.41-6.18
       10.83,1.87,6.24,2.41Z"
    transform="translate(6.5, 58) scale(0.85, -0.85)"/>
  <path class="cls-2"
    d="M26.9,14.47
       c-6.74.79-8.5,8.65-10.66,14.6
       -1.2,3.3-3.99-7.42-3.99-10.83
       s3.77-6.18,8.41-6.18
       10.83,1.87,6.24,2.41Z"
    transform="translate(57.5, 58) scale(-0.85, -0.85)"/>
</svg>